<?xml version="1.0" standalone="no"?>
<!DOCTYPE svg PUBLIC "-//W3C//DTD SVG 20010904//EN" "http://www.w3.org/TR/2001/REC-SVG-20010904/DTD/svg10.dtd">
<!-- Created using Karbon, part of Calligra: http://www.calligra.org/karbon -->
<svg xmlns="http://www.w3.org/2000/svg" xmlns:xlink="http://www.w3.org/1999/xlink" width="177.166pt" height="177.166pt">
<defs/>
<g id="layer0">
  <g id="id2" transform="" fill="none">
   <g id="bg-id2" transform="" fill="none"/>
   <g id="bo-id2" transform="" fill="none"/>
  </g>
  <path id="shape0" transform="translate(17.2533, 83.0128)" fill="#000000" fill-rule="evenodd" stroke="#000000" stroke-width="4.60630719250" stroke-linecap="square" stroke-linejoin="miter" stroke-miterlimit="1.98425540600" d="M22.8411 74.3283L0 74.3283L32.6302 123.881L65.2604 74.3283L42.4193 74.3283L42.4193 0L22.8411 0Z"/>
  <path id="shape1" transform="translate(50.2826, 87.3392)" fill="none" stroke="#000000" stroke-width="24.88823209240" stroke-linecap="square" stroke-linejoin="miter" stroke-miterlimit="1.98425540600" d="M0 0C39.4059 0.2704 78.8118 0.5408 118.218 0.8112"/>
  <path id="shape2" transform="translate(136.003, 83.0128)" fill="#000000" fill-rule="evenodd" stroke="#000000" stroke-width="4.60630719250" stroke-linecap="square" stroke-linejoin="miter" stroke-miterlimit="2.00000000000" d="M22.8411 74.3283L0 74.3283L32.6302 123.881L65.2604 74.3283L42.4193 74.3283L42.4193 0L22.8411 0Z"/>
  <path id="shape3" transform="translate(17.2533, 83.0128)" fill="#000000" fill-rule="evenodd" stroke="#000000" stroke-width="4.60630719250" stroke-linecap="square" stroke-linejoin="miter" stroke-miterlimit="2.00000000000" d="M22.8411 74.3283L0 74.3283L32.6302 123.881L65.2604 74.3283L42.4193 74.3283L42.4193 0L22.8411 0Z"/>
  <path id="shape4" transform="matrix(-1 0 0 1 110.862 20.28)" fill="none" stroke="#000000" stroke-width="24.88823209240" stroke-linecap="square" stroke-linejoin="miter" stroke-miterlimit="2.00000000000" d="M0 0C0.0891536 21.994 0.178307 43.988 0.267461 65.982"/>
 </g><g id="layer1"/>
</svg>
