<?xml version="1.0" standalone="no"?>
<!DOCTYPE svg PUBLIC "-//W3C//DTD SVG 20010904//EN" "http://www.w3.org/TR/2001/REC-SVG-20010904/DTD/svg10.dtd">
<!-- Created using Karbon, part of Calligra: http://www.calligra.org/karbon -->
<svg xmlns="http://www.w3.org/2000/svg" xmlns:xlink="http://www.w3.org/1999/xlink" width="177.166pt" height="177.166pt">
<defs/>
<g id="layer0">
  <g id="id2" transform="" fill="none">
   <g id="bg-id2" transform="" fill="none"/>
   <g id="bo-id2" transform="" fill="none"/>
  </g>
  <path id="shape0" transform="translate(20.4871, 9.34066)" fill="#000000" fill-rule="evenodd" stroke="#000000" stroke-width="0.00000000000" stroke-linecap="square" stroke-linejoin="miter" stroke-miterlimit="1.98425540600" stroke-dasharray="0,0" d="M90.2414 62.5856C66.2766 62.6015 45.6584 79.5393 40.9904 103.045C36.3224 126.551 48.904 150.082 71.0441 159.254C93.1843 168.426 118.72 160.685 132.042 140.765C145.365 120.844 142.764 94.2878 125.832 77.3293L154.151 49.0529C184.57 79.5179 189.241 127.225 165.308 163.011C141.376 198.798 95.5015 212.703 55.7279 196.226C15.9542 179.749 -6.64795 137.477 1.73788 95.2499C10.1237 53.023 47.1633 22.5951 90.2148 22.5665L90.1998 0L132.804 42.5477L90.2564 85.1521Z"/>
 </g><g id="layer1"/>
</svg>
